<svg width="24" height="24" viewBox="0 0 24 24" fill="none" xmlns="http://www.w3.org/2000/svg">
<mask id="mask0_132_784" style="mask-type:luminance" maskUnits="userSpaceOnUse" x="2" y="2" width="21" height="21">
<path fill-rule="evenodd" clip-rule="evenodd" d="M2.00049 2.00024H22.5001V22.4997H2.00049V2.00024Z" fill="white"/>
</mask>
<g mask="url(#mask0_132_784)">
<path fill-rule="evenodd" clip-rule="evenodd" d="M4.35957 5.06079C4.36157 5.06079 4.31157 5.11279 4.24857 5.17479C4.00657 5.40979 3.50557 5.89879 3.50057 6.92179C3.49257 8.35279 4.43357 11.0098 8.96457 15.5398C13.4746 20.0478 16.1276 20.9998 17.5616 20.9998H17.5826C18.6056 20.9948 19.0936 20.4928 19.3296 20.2518C19.4016 20.1778 19.4596 20.1238 19.5006 20.0898C20.4966 19.0878 21.0066 18.3418 21.0016 17.8638C20.9946 17.3758 20.3876 16.7988 19.5486 16.0008C19.2816 15.7468 18.9916 15.4708 18.6856 15.1648C17.8926 14.3738 17.4996 14.5088 16.6356 14.8128C15.4406 15.2318 13.8006 15.8018 11.2526 13.2528C8.70057 10.7028 9.27157 9.06479 9.68957 7.86979C9.99157 7.00579 10.1296 6.61179 9.33557 5.81779C9.02457 5.50779 8.74557 5.21379 8.48857 4.94379C7.69557 4.10979 7.12357 3.50679 6.63857 3.49979H6.63057C6.15157 3.49979 5.40757 4.01179 4.35457 5.06479C4.35757 5.06179 4.35857 5.06079 4.35957 5.06079ZM17.5626 22.4998C15.0706 22.4998 11.8216 20.5158 7.90457 16.6008C3.97257 12.6698 1.98557 9.41079 2.00057 6.91379C2.00957 5.26379 2.87457 4.41879 3.19957 4.10179C3.21657 4.08079 3.27457 4.02379 3.29457 4.00379C4.72857 2.56879 5.69557 1.98879 6.65757 1.99979C7.77457 2.01479 8.56957 2.85079 9.57557 3.90979C9.82457 4.17179 10.0946 4.45679 10.3956 4.75679C11.8556 6.21679 11.4396 7.40779 11.1056 8.36379C10.7416 9.40679 10.4266 10.3068 12.3126 12.1928C14.2006 14.0788 15.1006 13.7638 16.1396 13.3968C17.0966 13.0628 18.2846 12.6448 19.7466 14.1048C20.0426 14.4008 20.3236 14.6678 20.5826 14.9148C21.6466 15.9258 22.4866 16.7248 22.5006 17.8448C22.5126 18.7998 21.9326 19.7728 20.5006 21.2058L19.8666 20.7758L20.4026 21.2998C20.0856 21.6248 19.2416 22.4908 17.5906 22.4998H17.5626Z" fill="#333333"/>
</g>
</svg>
