<svg width="28" height="27" viewBox="0 0 28 27" fill="none" xmlns="http://www.w3.org/2000/svg">
<path d="M22.4359 26.9998C21.2157 26.9998 19.5016 26.5743 16.9348 25.1917C13.8136 23.5042 11.3993 21.9462 8.29493 18.9611C5.30182 16.0773 3.84527 14.2102 1.80673 10.6338C-0.496239 6.59584 -0.103659 4.4792 0.335181 3.57457C0.857788 2.49335 1.6292 1.84667 2.62627 1.20481C3.19261 0.84708 3.79193 0.540422 4.41664 0.28873C4.47915 0.262814 4.53729 0.238104 4.58918 0.215805C4.89861 0.0814061 5.36746 -0.121699 5.96133 0.0952679C6.35766 0.238707 6.71148 0.532215 7.26535 1.05957C8.40121 2.13958 9.9534 4.5449 10.526 5.72616C10.9105 6.52231 11.1649 7.04785 11.1655 7.63728C11.1655 8.32735 10.8054 8.85952 10.3685 9.43388C10.2866 9.54177 10.2053 9.64482 10.1266 9.74487C9.65084 10.3476 9.54644 10.5217 9.6152 10.8327C9.75461 11.4577 10.7942 13.3182 12.5027 14.9617C14.2111 16.6052 16.0853 17.5442 16.736 17.678C17.0724 17.7473 17.2568 17.6425 17.9019 17.1675C17.9944 17.0994 18.0894 17.0289 18.1888 16.9584C18.8552 16.4805 19.3816 16.1424 20.0805 16.1424H20.0842C20.6925 16.1424 21.2132 16.3967 22.0759 16.8162C23.2011 17.3634 25.771 18.8406 26.8981 19.9369C27.4463 20.4697 27.752 20.8096 27.9014 21.1911C28.1265 21.7654 27.9146 22.2156 27.7764 22.517C27.7533 22.567 27.7277 22.6219 27.7008 22.6827C27.4376 23.2839 27.1177 23.8605 26.745 24.4052C26.0804 25.3635 25.4072 26.1054 24.2832 26.6098C23.706 26.873 23.0744 27.0064 22.4359 26.9998Z" fill="#00B761"/>
</svg>
