<svg width="36" height="36" viewBox="0 0 36 36" fill="none" xmlns="http://www.w3.org/2000/svg">
<rect opacity="0.15" width="36" height="36" rx="18" fill="#92CB92"/>
<path fill-rule="evenodd" clip-rule="evenodd" d="M15.2067 11.3333H20.794C22.8533 11.3333 24 12.5199 24 14.5533V21.4399C24 23.5066 22.8533 24.6666 20.794 24.6666H15.2067C13.18 24.6666 12 23.5066 12 21.4399V14.5533C12 12.5199 13.18 11.3333 15.2067 11.3333ZM15.3867 14.4399V14.4333H17.3793C17.6667 14.4333 17.9 14.6666 17.9 14.9526C17.9 15.2466 17.6667 15.4799 17.3793 15.4799H15.3867C15.0993 15.4799 14.8667 15.2466 14.8667 14.9599C14.8667 14.6733 15.0993 14.4399 15.3867 14.4399ZM15.3867 18.4933H20.6133C20.9 18.4933 21.1333 18.2599 21.1333 17.9733C21.1333 17.6866 20.9 17.4526 20.6133 17.4526H15.3867C15.0993 17.4526 14.8667 17.6866 14.8667 17.9733C14.8667 18.2599 15.0993 18.4933 15.3867 18.4933ZM15.3867 21.5399H20.6133C20.8793 21.5133 21.08 21.2859 21.08 21.0199C21.08 20.7466 20.8793 20.5199 20.6133 20.4933H15.3867C15.1867 20.4733 14.9933 20.5666 14.8867 20.7399C14.78 20.9066 14.78 21.1266 14.8867 21.2999C14.9933 21.4666 15.1867 21.5666 15.3867 21.5399Z" fill="#92CB92"/>
</svg>
