<svg  viewBox="0 0 30 30" fill="none" xmlns="http://www.w3.org/2000/svg">
<rect opacity="0.1" width="30" height="30" rx="15" fill="#FF9A3D"/>
<path d="M19.9498 10.0502C18.6276 8.72813 16.8697 8 15 8C13.1303 8 11.3724 8.72813 10.0502 10.0502C8.72813 11.3724 8 13.1303 8 15C8 16.8697 8.72813 18.6276 10.0502 19.9498C11.3724 21.2719 13.1303 22 15 22C16.8697 22 18.6276 21.2719 19.9498 19.9498C21.2719 18.6276 22 16.8697 22 15C22 13.1303 21.2719 11.3724 19.9498 10.0502ZM12.189 13.7168C12.189 13.3255 12.5074 13.0072 12.8987 13.0072C13.2899 13.0072 13.6082 13.3255 13.6082 13.7168C13.6082 14.108 13.2899 14.4263 12.8987 14.4263C12.5074 14.4263 12.189 14.108 12.189 13.7168ZM17.4393 16.9633C16.9367 17.8321 16.0017 18.3717 14.999 18.3717C13.9945 18.3717 13.0585 17.8305 12.5565 16.9594C12.4434 16.763 12.5108 16.5122 12.7071 16.3992C12.9033 16.286 13.1541 16.3535 13.2672 16.5497C13.6232 17.1676 14.2868 17.5514 14.999 17.5514C15.7099 17.5514 16.3727 17.1687 16.7292 16.5526C16.8426 16.3565 17.0935 16.2895 17.2896 16.403C17.4857 16.5163 17.5527 16.7673 17.4393 16.9633ZM17.0975 14.4263C16.7061 14.4263 16.3878 14.108 16.3878 13.7168C16.3878 13.3255 16.7061 13.0072 17.0975 13.0072C17.4886 13.0072 17.8069 13.3255 17.8069 13.7168C17.807 14.108 17.4886 14.4263 17.0975 14.4263Z" fill="#F59762"/>
</svg>
