<svg width="24" height="24" viewBox="0 0 24 24" fill="none" xmlns="http://www.w3.org/2000/svg">
<path d="M11.9971 2.24982C6.62233 2.24982 2.24951 6.62372 2.24951 11.9998C2.24951 17.3759 6.62233 21.7498 11.9971 21.7498C17.3718 21.7498 21.7447 17.3759 21.7447 11.9998C21.7447 6.62372 17.3718 2.24982 11.9971 2.24982ZM13.4967 16.4998H10.4975C10.2986 16.4998 10.1079 16.4208 9.96726 16.2801C9.82665 16.1395 9.74765 15.9487 9.74765 15.7498C9.74765 15.5509 9.82665 15.3601 9.96726 15.2195C10.1079 15.0788 10.2986 14.9998 10.4975 14.9998H13.4967C13.6956 14.9998 13.8863 15.0788 14.0269 15.2195C14.1675 15.3601 14.2465 15.5509 14.2465 15.7498C14.2465 15.9487 14.1675 16.1395 14.0269 16.2801C13.8863 16.4208 13.6956 16.4998 13.4967 16.4998ZM15.7462 13.4998H8.24802C8.04916 13.4998 7.85844 13.4208 7.71782 13.2801C7.57721 13.1395 7.49821 12.9487 7.49821 12.7498C7.49821 12.5509 7.57721 12.3601 7.71782 12.2195C7.85844 12.0788 8.04916 11.9998 8.24802 11.9998H15.7462C15.945 11.9998 16.1357 12.0788 16.2764 12.2195C16.417 12.3601 16.496 12.5509 16.496 12.7498C16.496 12.9487 16.417 13.1395 16.2764 13.2801C16.1357 13.4208 15.945 13.4998 15.7462 13.4998ZM17.2458 10.4998H6.74839C6.54953 10.4998 6.35881 10.4208 6.2182 10.2801C6.07758 10.1395 5.99858 9.94873 5.99858 9.74982C5.99858 9.5509 6.07758 9.36014 6.2182 9.21949C6.35881 9.07883 6.54953 8.99982 6.74839 8.99982H17.2458C17.4446 8.99982 17.6354 9.07883 17.776 9.21949C17.9166 9.36014 17.9956 9.5509 17.9956 9.74982C17.9956 9.94873 17.9166 10.1395 17.776 10.2801C17.6354 10.4208 17.4446 10.4998 17.2458 10.4998Z" fill="#7F88E5"/>
</svg>
