<svg width="36" height="36" viewBox="0 0 36 36" fill="none" xmlns="http://www.w3.org/2000/svg">
<rect opacity="0.15" width="36" height="36" rx="18" fill="#29D697"/>
<path fill-rule="evenodd" clip-rule="evenodd" d="M21.3403 19.7341C21.6163 19.7341 21.8403 19.5101 21.8403 19.2341V17.9994C21.8403 17.7234 21.6163 17.4994 21.3403 17.4994H17.5457C17.3297 16.7881 16.675 16.2654 15.8937 16.2654C14.9377 16.2654 14.1597 17.0434 14.1597 17.9994C14.1597 18.9561 14.9377 19.7341 15.8937 19.7341C16.675 19.7341 17.3297 19.2114 17.5457 18.4994H18.9537V19.2341C18.9537 19.5101 19.1777 19.7341 19.4537 19.7341C19.7297 19.7341 19.9537 19.5101 19.9537 19.2341V18.4994H20.8403V19.2341C20.8403 19.5101 21.0643 19.7341 21.3403 19.7341ZM15.1103 11.3328H20.8897C23.1483 11.3328 24.6663 12.9181 24.6663 15.2774V20.7221C24.6663 23.0814 23.1483 24.6661 20.889 24.6661H15.1103C12.851 24.6661 11.333 23.0814 11.333 20.7221V15.2774C11.333 12.9181 12.851 11.3328 15.1103 11.3328ZM15.1591 18C15.1591 17.5947 15.4891 17.2654 15.8937 17.2654C16.2984 17.2654 16.6284 17.5947 16.6284 18C16.6284 18.4047 16.2984 18.734 15.8937 18.734C15.4891 18.734 15.1591 18.4047 15.1591 18Z" fill="#29D697"/>
</svg>
