<svg width="36" height="36" viewBox="0 0 36 36" fill="none" xmlns="http://www.w3.org/2000/svg">
<rect opacity="0.15" width="36" height="36" rx="18" fill="#39D1F2"/>
<path fill-rule="evenodd" clip-rule="evenodd" d="M16.5966 17.4866C16.3049 17.4866 16.0743 17.7133 16.0743 17.9999C16.0743 18.2799 16.3049 18.5133 16.5966 18.5133H20.6663V21.6999C20.6663 23.3333 19.3165 24.6666 17.6479 24.6666H14.3446C12.6828 24.6666 11.333 23.3399 11.333 21.7066V14.2999C11.333 12.6599 12.6896 11.3333 14.3514 11.3333H17.6615C19.3165 11.3333 20.6663 12.6599 20.6663 14.2933V17.4866H16.5966ZM23.0865 15.6934L25.0331 17.6334C25.1331 17.7334 25.1865 17.8601 25.1865 18.0001C25.1865 18.1334 25.1331 18.2667 25.0331 18.3601L23.0865 20.3001C22.9865 20.4001 22.8531 20.4534 22.7265 20.4534C22.5931 20.4534 22.4598 20.4001 22.3598 20.3001C22.1598 20.1001 22.1598 19.7734 22.3598 19.5734L23.4265 18.5134H20.6665V17.4867H23.4265L22.3598 16.4267C22.1598 16.2267 22.1598 15.9001 22.3598 15.7001C22.5598 15.4934 22.8865 15.4934 23.0865 15.6934Z" fill="#39D1F2"/>
</svg>
