<svg width="144" height="106" viewBox="0 0 144 106" fill="none" xmlns="http://www.w3.org/2000/svg">
<g filter="url(#filter0_d_613_2666)">
<rect x="40" y="24" width="64" height="64" rx="32" fill="#4A43EC"/>
<path fill-rule="evenodd" clip-rule="evenodd" d="M78 48C78 49.1046 78.8954 50 80 50C81.1046 50 82 49.1046 82 48C82 46.8954 81.1046 46 80 46C78.8954 46 78 46.8954 78 48ZM80 58C78.8954 58 78 57.1046 78 56C78 54.8954 78.8954 54 80 54C81.1046 54 82 54.8954 82 56C82 57.1046 81.1046 58 80 58ZM80 66C78.8954 66 78 65.1046 78 64C78 62.8954 78.8954 62 80 62C81.1046 62 82 62.8954 82 64C82 65.1046 81.1046 66 80 66ZM72 66C70.8954 66 70 65.1046 70 64C70 62.8954 70.8954 62 72 62C73.1046 62 74 62.8954 74 64C74 65.1046 73.1046 66 72 66ZM70 56C70 57.1046 70.8954 58 72 58C73.1046 58 74 57.1046 74 56C74 54.8954 73.1046 54 72 54C70.8954 54 70 54.8954 70 56ZM72 50C70.8954 50 70 49.1046 70 48C70 46.8954 70.8954 46 72 46C73.1046 46 74 46.8954 74 48C74 49.1046 73.1046 50 72 50ZM62 64C62 65.1046 62.8954 66 64 66C65.1046 66 66 65.1046 66 64C66 62.8954 65.1046 62 64 62C62.8954 62 62 62.8954 62 64ZM64 58C62.8954 58 62 57.1046 62 56C62 54.8954 62.8954 54 64 54C65.1046 54 66 54.8954 66 56C66 57.1046 65.1046 58 64 58ZM62 48C62 49.1046 62.8954 50 64 50C65.1046 50 66 49.1046 66 48C66 46.8954 65.1046 46 64 46C62.8954 46 62 46.8954 62 48Z" fill="#FCFCFC"/>
</g>
<defs>
<filter id="filter0_d_613_2666" x="0" y="0" width="144" height="144" filterUnits="userSpaceOnUse" color-interpolation-filters="sRGB">
<feFlood flood-opacity="0" result="BackgroundImageFix"/>
<feColorMatrix in="SourceAlpha" type="matrix" values="0 0 0 0 0 0 0 0 0 0 0 0 0 0 0 0 0 0 127 0" result="hardAlpha"/>
<feOffset dy="16"/>
<feGaussianBlur stdDeviation="20"/>
<feColorMatrix type="matrix" values="0 0 0 0 0.0509804 0 0 0 0 0.247059 0 0 0 0 0.403922 0 0 0 0.1 0"/>
<feBlend mode="normal" in2="BackgroundImageFix" result="effect1_dropShadow_613_2666"/>
<feBlend mode="normal" in="SourceGraphic" in2="effect1_dropShadow_613_2666" result="shape"/>
</filter>
</defs>
</svg>
