<svg width="30" height="30" viewBox="0 0 30 30" fill="none" xmlns="http://www.w3.org/2000/svg">
<path d="M6.58963 22.8067C4.18157 20.4415 2.70916 17.3765 2.3673 14.0703C1.08746 15.6882 0.39351 17.6725 0.396709 19.755C0.398861 21.1096 0.703729 22.456 1.28142 23.6736L0.0902117 27.1402C-0.114565 27.7362 0.035019 28.3833 0.480632 28.8289C0.794224 29.1425 1.20768 29.3096 1.63287 29.3096C1.81177 29.3096 1.99276 29.28 2.16927 29.2193L5.63606 28.0281C6.85362 28.6058 8.20005 28.9106 9.55457 28.9128C11.6779 28.9156 13.6987 28.1952 15.3333 26.8675C12.0466 26.5701 8.98066 25.1551 6.58963 22.8067Z" fill="#159DFF"/>
<path d="M29.6697 23.1374L27.9402 18.1042C28.7738 16.4 29.2144 14.5048 29.2174 12.5978C29.2225 9.28197 27.9396 6.14681 25.605 3.76986C23.2699 1.39238 20.1583 0.0541478 16.8433 0.00163035C13.4058 -0.0527481 10.1747 1.25478 7.7456 3.68384C5.31648 6.11296 4.00872 9.34397 4.06316 12.7816C4.11567 16.0966 5.45391 19.2083 7.83127 21.5434C10.2036 23.8734 13.3308 25.156 16.6395 25.1558C16.646 25.1558 16.6529 25.1558 16.6592 25.1558C18.5663 25.1529 20.4616 24.7123 22.1657 23.8787L27.199 25.6082C27.4087 25.6803 27.6238 25.7154 27.8364 25.7154C28.3417 25.7154 28.833 25.5169 29.2057 25.1441C29.7353 24.6146 29.913 23.8457 29.6697 23.1374ZM17.8546 16.9427H11.3598C10.8704 16.9427 10.4736 16.5458 10.4736 16.0564C10.4736 15.567 10.8704 15.1702 11.3598 15.1702H17.8545C18.344 15.1702 18.7408 15.567 18.7408 16.0564C18.7408 16.5459 18.3441 16.9427 17.8546 16.9427ZM21.9192 13.2979H11.3599C10.8704 13.2979 10.4737 12.9011 10.4737 12.4117C10.4737 11.9223 10.8705 11.5254 11.3599 11.5254H21.9192C22.4087 11.5254 22.8054 11.9223 22.8054 12.4117C22.8054 12.9011 22.4087 13.2979 21.9192 13.2979ZM21.9192 9.65303H11.3599C10.8704 9.65303 10.4737 9.25621 10.4737 8.7668C10.4737 8.27734 10.8705 7.88058 11.3599 7.88058H21.9192C22.4087 7.88058 22.8054 8.2774 22.8054 8.7668C22.8054 9.25621 22.4087 9.65303 21.9192 9.65303Z" fill="#159DFF"/>
</svg>
