<svg width="36" height="36" viewBox="0 0 36 36" fill="none" xmlns="http://www.w3.org/2000/svg">
<rect opacity="0.15" width="36" height="36" rx="18" fill="#4A43EC"/>
<path fill-rule="evenodd" clip-rule="evenodd" d="M22.4711 15.8641C22.4711 16.7014 22.6924 17.1949 23.1793 17.7636C23.5484 18.1826 23.6663 18.7205 23.6663 19.3039C23.6663 19.8867 23.4749 20.44 23.0912 20.8892C22.589 21.4277 21.8807 21.7715 21.1578 21.8312C20.1103 21.9205 19.0621 21.9957 18 21.9957C16.9372 21.9957 15.8897 21.9508 14.8422 21.8312C14.1186 21.7715 13.4104 21.4277 12.9088 20.8892C12.5252 20.44 12.333 19.8867 12.333 19.3039C12.333 18.7205 12.4516 18.1826 12.82 17.7636C13.3222 17.1949 13.529 16.7014 13.529 15.8641V15.5801C13.529 14.4588 13.8086 13.7256 14.3843 13.0078C15.2404 11.961 16.6126 11.3333 17.9702 11.3333H18.0298C19.4166 11.3333 20.8332 11.9913 21.6746 13.083C22.2206 13.786 22.4711 14.4884 22.4711 15.5801V15.8641ZM16.0488 23.3738C16.0488 23.0381 16.3569 22.8843 16.6418 22.8185C16.9751 22.748 19.0059 22.748 19.3391 22.8185C19.624 22.8843 19.9321 23.0381 19.9321 23.3738C19.9156 23.6934 19.7281 23.9768 19.469 24.1567C19.1331 24.4186 18.7388 24.5844 18.3267 24.6442C18.0988 24.6737 17.8748 24.6744 17.6549 24.6442C17.2421 24.5844 16.8479 24.4186 16.5126 24.156C16.2529 23.9768 16.0654 23.6934 16.0488 23.3738Z" fill="#4A43EC"/>
</svg>
