<svg width="30" height="30" viewBox="0 0 30 30" fill="none" xmlns="http://www.w3.org/2000/svg">
<rect opacity="0.1" width="30" height="30" rx="15" fill="#29D697"/>
<path d="M19.4999 14.5H15.5V10.5C15.5 10.224 15.276 10 15 10C14.724 10 14.5 10.224 14.5 10.5V14.5H10.5C10.224 14.5 10 14.724 10 15C10 15.276 10.224 15.5 10.5 15.5H14.5V19.4999C14.5 19.776 14.724 20 15 20C15.276 20 15.5 19.776 15.5 19.4999V15.5H19.4999C19.776 15.5 20 15.276 20 15C20 14.724 19.776 14.5 19.4999 14.5Z" fill="#29D697"/>
</svg>
