<svg width="28" height="28" viewBox="0 0 28 28" fill="none" xmlns="http://www.w3.org/2000/svg">
<path d="M28 5.99993C28 4.93906 27.5786 3.92164 26.8284 3.17149C26.0783 2.42134 25.0609 1.99992 24 1.99992H23V1.02804C23 0.48991 22.5862 0.0280338 22.0481 0.00115874C21.9129 -0.00535578 21.7778 0.0156489 21.6509 0.0629001C21.5241 0.110151 21.4081 0.182665 21.3102 0.276048C21.2122 0.369431 21.1341 0.481737 21.0808 0.606164C21.0275 0.73059 21 0.864545 21 0.999912V1.99992H7V1.02804C7 0.48991 6.58625 0.0280338 6.04813 0.00115874C5.91292 -0.00535578 5.77779 0.0156489 5.65094 0.0629001C5.52409 0.110151 5.40815 0.182665 5.31015 0.276048C5.21215 0.369431 5.13413 0.481737 5.08082 0.606164C5.02751 0.73059 5.00001 0.864545 5 0.999912V1.99992H4C2.93913 1.99992 1.92172 2.42134 1.17157 3.17149C0.421427 3.92164 0 4.93906 0 5.99993V6.74993C0 6.81624 0.0263393 6.87982 0.0732234 6.92671C0.120107 6.97359 0.183696 6.99993 0.25 6.99993H27.75C27.8163 6.99993 27.8799 6.97359 27.9268 6.92671C27.9737 6.87982 28 6.81624 28 6.74993V5.99993ZM0 24C0 25.0609 0.421427 26.0783 1.17157 26.8284C1.92172 27.5786 2.93913 28 4 28H24C25.0609 28 26.0783 27.5786 26.8284 26.8284C27.5786 26.0783 28 25.0609 28 24V9.18744C28 9.13771 27.9802 9.09002 27.9451 9.05486C27.9099 9.01969 27.8622 8.99994 27.8125 8.99994H0.1875C0.137772 8.99994 0.0900806 9.01969 0.0549176 9.05486C0.0197545 9.09002 0 9.13771 0 9.18744V24ZM21.5 10.9999C21.7967 10.9999 22.0867 11.0879 22.3334 11.2527C22.58 11.4176 22.7723 11.6518 22.8858 11.9259C22.9993 12.2 23.0291 12.5016 22.9712 12.7926C22.9133 13.0836 22.7704 13.3508 22.5607 13.5606C22.3509 13.7704 22.0836 13.9133 21.7926 13.9711C21.5017 14.029 21.2001 13.9993 20.926 13.8858C20.6519 13.7722 20.4176 13.58 20.2528 13.3333C20.088 13.0866 20 12.7966 20 12.4999C20 12.1021 20.158 11.7206 20.4393 11.4393C20.7206 11.158 21.1022 10.9999 21.5 10.9999ZM21.5 16C21.7967 16 22.0867 16.0879 22.3334 16.2528C22.58 16.4176 22.7723 16.6518 22.8858 16.9259C22.9993 17.2 23.0291 17.5016 22.9712 17.7926C22.9133 18.0836 22.7704 18.3508 22.5607 18.5606C22.3509 18.7704 22.0836 18.9133 21.7926 18.9711C21.5017 19.029 21.2001 18.9993 20.926 18.8858C20.6519 18.7723 20.4176 18.58 20.2528 18.3333C20.088 18.0866 20 17.7966 20 17.5C20 17.1021 20.158 16.7206 20.4393 16.4393C20.7206 16.158 21.1022 16 21.5 16ZM16.5 10.9999C16.7967 10.9999 17.0867 11.0879 17.3334 11.2527C17.58 11.4176 17.7723 11.6518 17.8858 11.9259C17.9993 12.2 18.0291 12.5016 17.9712 12.7926C17.9133 13.0836 17.7704 13.3508 17.5607 13.5606C17.3509 13.7704 17.0836 13.9133 16.7926 13.9711C16.5017 14.029 16.2001 13.9993 15.926 13.8858C15.6519 13.7722 15.4176 13.58 15.2528 13.3333C15.088 13.0866 15 12.7966 15 12.4999C15 12.1021 15.158 11.7206 15.4393 11.4393C15.7206 11.158 16.1022 10.9999 16.5 10.9999ZM16.5 16C16.7967 16 17.0867 16.0879 17.3334 16.2528C17.58 16.4176 17.7723 16.6518 17.8858 16.9259C17.9993 17.2 18.0291 17.5016 17.9712 17.7926C17.9133 18.0836 17.7704 18.3508 17.5607 18.5606C17.3509 18.7704 17.0836 18.9133 16.7926 18.9711C16.5017 19.029 16.2001 18.9993 15.926 18.8858C15.6519 18.7723 15.4176 18.58 15.2528 18.3333C15.088 18.0866 15 17.7966 15 17.5C15 17.1021 15.158 16.7206 15.4393 16.4393C15.7206 16.158 16.1022 16 16.5 16ZM16.5 21C16.7967 21 17.0867 21.0879 17.3334 21.2528C17.58 21.4176 17.7723 21.6519 17.8858 21.926C17.9993 22.2 18.0291 22.5016 17.9712 22.7926C17.9133 23.0836 17.7704 23.3509 17.5607 23.5606C17.3509 23.7704 17.0836 23.9133 16.7926 23.9712C16.5017 24.029 16.2001 23.9993 15.926 23.8858C15.6519 23.7723 15.4176 23.58 15.2528 23.3333C15.088 23.0867 15 22.7967 15 22.5C15 22.1022 15.158 21.7206 15.4393 21.4393C15.7206 21.158 16.1022 21 16.5 21ZM11.5 16C11.7967 16 12.0867 16.0879 12.3334 16.2528C12.58 16.4176 12.7723 16.6518 12.8858 16.9259C12.9994 17.2 13.0291 17.5016 12.9712 17.7926C12.9133 18.0836 12.7704 18.3508 12.5607 18.5606C12.3509 18.7704 12.0836 18.9133 11.7926 18.9711C11.5017 19.029 11.2001 18.9993 10.926 18.8858C10.6519 18.7723 10.4176 18.58 10.2528 18.3333C10.088 18.0866 10 17.7966 10 17.5C10 17.1021 10.158 16.7206 10.4393 16.4393C10.7206 16.158 11.1022 16 11.5 16ZM11.5 21C11.7967 21 12.0867 21.0879 12.3334 21.2528C12.58 21.4176 12.7723 21.6519 12.8858 21.926C12.9994 22.2 13.0291 22.5016 12.9712 22.7926C12.9133 23.0836 12.7704 23.3509 12.5607 23.5606C12.3509 23.7704 12.0836 23.9133 11.7926 23.9712C11.5017 24.029 11.2001 23.9993 10.926 23.8858C10.6519 23.7723 10.4176 23.58 10.2528 23.3333C10.088 23.0867 10 22.7967 10 22.5C10 22.1022 10.158 21.7206 10.4393 21.4393C10.7206 21.158 11.1022 21 11.5 21ZM6.5 16C6.79667 16 7.08668 16.0879 7.33335 16.2528C7.58003 16.4176 7.77229 16.6518 7.88582 16.9259C7.99935 17.2 8.02906 17.5016 7.97118 17.7926C7.9133 18.0836 7.77044 18.3508 7.56066 18.5606C7.35088 18.7704 7.08361 18.9133 6.79264 18.9711C6.50166 19.029 6.20006 18.9993 5.92597 18.8858C5.65189 18.7723 5.41762 18.58 5.2528 18.3333C5.08797 18.0866 5 17.7966 5 17.5C5 17.1021 5.15804 16.7206 5.43934 16.4393C5.72064 16.158 6.10218 16 6.5 16ZM6.5 21C6.79667 21 7.08668 21.0879 7.33335 21.2528C7.58003 21.4176 7.77229 21.6519 7.88582 21.926C7.99935 22.2 8.02906 22.5016 7.97118 22.7926C7.9133 23.0836 7.77044 23.3509 7.56066 23.5606C7.35088 23.7704 7.08361 23.9133 6.79264 23.9712C6.50166 24.029 6.20006 23.9993 5.92597 23.8858C5.65189 23.7723 5.41762 23.58 5.2528 23.3333C5.08797 23.0867 5 22.7967 5 22.5C5 22.1022 5.15804 21.7206 5.43934 21.4393C5.72064 21.158 6.10218 21 6.5 21Z" fill="#FE8A71"/>
</svg>
