<svg width="36" height="36" viewBox="0 0 36 36" fill="none" xmlns="http://www.w3.org/2000/svg">
<rect opacity="0.15" width="36" height="36" rx="18" fill="#F59762"/>
<path fill-rule="evenodd" clip-rule="evenodd" d="M17.8184 24.609C17.8922 24.6476 17.9748 24.6672 18.0573 24.6666C18.1399 24.6659 18.2218 24.6456 18.2963 24.6064L20.6749 23.3349C21.3494 22.9753 21.8776 22.5733 22.2897 22.1052C23.1857 21.0854 23.6749 19.7838 23.6662 18.4417L23.638 14.0146C23.6353 13.5047 23.3004 13.0497 22.8051 12.8843L18.3802 11.3996C18.1137 11.3094 17.8218 11.3114 17.56 11.4042L13.1518 12.9418C12.6592 13.1137 12.3303 13.572 12.333 14.0826L12.3612 18.5064C12.3699 19.8505 12.876 21.1462 13.7868 22.1556C14.2029 22.6171 14.7358 23.0133 15.4177 23.3669L17.8184 24.609ZM17.1887 19.4059C17.288 19.5013 17.4169 19.5484 17.5458 19.5471C17.6746 19.5464 17.8028 19.498 17.9008 19.4013L20.5002 16.8386C20.6955 16.6458 20.6935 16.3359 20.4962 16.1457C20.2982 15.9555 19.9794 15.9568 19.7841 16.1496L17.5384 18.3632L16.6189 17.4793C16.4209 17.2891 16.1028 17.291 15.9068 17.4839C15.7115 17.6767 15.7135 17.9866 15.9115 18.1768L17.1887 19.4059Z" fill="#F0635A"/>
</svg>
