<svg width="12" height="12" viewBox="0 0 12 12" fill="none" xmlns="http://www.w3.org/2000/svg">
<path d="M11.25 5.97766H0.75C0.336492 5.97766 0 6.3154 0 6.73045C0 7.14549 0.336492 7.48324 0.75 7.48324H11.25C11.6635 7.48324 12 7.14549 12 6.73045C12 6.3154 11.6635 5.97766 11.25 5.97766Z" fill="#FE8A71"/>
<path d="M11.3183 6.99081C11.1828 6.95268 11.0468 7.02996 11.0093 7.16346L10.9898 7.23222H1.00926L0.989264 7.16346C0.951764 7.02996 0.814772 6.95369 0.680264 6.99081C0.547256 7.02895 0.470756 7.16798 0.508772 7.30096L1.19776 9.72193C1.41126 10.4722 2.10327 10.9961 2.88027 10.9961H9.11776C9.89526 10.9961 10.5868 10.4722 10.8003 9.72193L11.4893 7.30096C11.5278 7.16796 11.4508 7.02895 11.3183 6.99081ZM2.88076 9.99241C2.54776 9.99241 2.25076 9.76808 2.15976 9.44638L1.83526 8.30516C1.79727 8.17166 1.87426 8.03314 2.00676 7.99501C2.14075 7.95688 2.27826 8.03465 2.31576 8.16766L2.64025 9.30888C2.67126 9.41578 2.76974 9.49106 2.88074 9.49106C3.01874 9.49106 3.13075 9.60348 3.13075 9.74199C3.13077 9.88051 3.01876 9.99241 2.88076 9.99241Z" fill="#FE8A71"/>
<path d="M3.3618 10.5206C3.23831 10.4598 3.0888 10.5085 3.02629 10.633L2.5263 11.6367C2.4648 11.7607 2.51479 11.9112 2.63831 11.9735C2.6748 11.9915 2.71282 12.0001 2.75032 12.0001C2.84182 12.0001 2.92983 11.9494 2.97382 11.8611L3.47381 10.8573C3.53531 10.7333 3.48529 10.5828 3.3618 10.5206Z" fill="#FE8A71"/>
<path d="M9.47381 11.6371L8.97381 10.6334C8.91182 10.509 8.76182 10.4593 8.6383 10.521C8.51481 10.5832 8.4648 10.7338 8.5263 10.8577L9.02629 11.8615C9.07028 11.9493 9.15829 12 9.24979 12C9.28729 12 9.32528 11.9914 9.3618 11.9739C9.48531 11.9117 9.53531 11.7611 9.47381 11.6371Z" fill="#FE8A71"/>
<path d="M10.0431 0C9.78809 0 9.54809 0.099862 9.3676 0.281049L8.5741 1.0775C8.4766 1.17536 8.4766 1.33446 8.5741 1.43232C8.6716 1.53018 8.83011 1.53018 8.92761 1.43232L9.72109 0.636364C9.80659 0.550053 9.92108 0.502368 10.0456 0.502368C10.2966 0.502368 10.5006 0.707126 10.5006 0.959051V6.22856C10.5006 6.36708 10.6126 6.4795 10.7506 6.4795C10.8886 6.4795 11.0006 6.36708 11.0011 6.22807V0.958557C11.0011 0.4301 10.5731 0 10.0431 0Z" fill="#FE8A71"/>
<path d="M9.17726 1.32852L8.67727 0.826674C8.62027 0.769462 8.54077 0.742856 8.45977 0.756406L7.20977 0.962176C7.11778 0.977232 7.04227 1.04247 7.01278 1.1308C6.98327 1.21914 7.00577 1.31749 7.07079 1.38423L8.57079 2.93497C8.6183 2.98466 8.68378 3.01126 8.74978 3.01126C8.77329 3.01126 8.79729 3.00776 8.82077 3.00073C8.90977 2.97464 8.97727 2.90086 8.99527 2.80952L9.24527 1.55488C9.26175 1.47306 9.23625 1.38823 9.17726 1.32852Z" fill="#FE8A71"/>
<path d="M5.92663 3.04044C5.82912 2.94258 5.67062 2.94258 5.57312 3.04044L5.07312 3.54229C4.97563 3.64015 4.97563 3.79925 5.07312 3.89711C5.12213 3.94578 5.18612 3.97039 5.25013 3.97039C5.31413 3.97039 5.37812 3.94581 5.42663 3.89711L5.92663 3.39526C6.02412 3.29737 6.02412 3.1383 5.92663 3.04044Z" fill="#FE8A71"/>
<path d="M6.92663 4.04386C6.82913 3.94599 6.67062 3.94599 6.57312 4.04386L6.07312 4.54571C5.97563 4.64357 5.97563 4.80267 6.07312 4.90053C6.12213 4.9492 6.18612 4.97381 6.25013 4.97381C6.31413 4.97381 6.37812 4.94922 6.42663 4.90053L6.92663 4.39868C7.02413 4.30082 7.02413 4.14172 6.92663 4.04386Z" fill="#FE8A71"/>
<path d="M7.42663 2.538C7.32913 2.44013 7.17062 2.44013 7.07312 2.538L6.57312 3.03985C6.47563 3.13771 6.47563 3.29681 6.57312 3.39467C6.62213 3.44334 6.68612 3.46795 6.75013 3.46795C6.81413 3.46795 6.87812 3.44336 6.92663 3.39467L7.42663 2.89282C7.52413 2.79496 7.52413 2.63586 7.42663 2.538Z" fill="#FE8A71"/>
</svg>
