<svg width="155" height="37" viewBox="0 0 155 37" fill="none" xmlns="http://www.w3.org/2000/svg">
<path d="M27.375 20.4844C27.375 21.7969 27.151 22.9948 26.7031 24.0781C26.2552 25.1615 25.6458 26.0938 24.875 26.875C24.1042 27.6458 23.1979 28.2448 22.1562 28.6719C21.125 29.099 20.0156 29.3125 18.8281 29.3125C17.651 29.3125 16.5417 29.0938 15.5 28.6562C14.4688 28.2188 13.5625 27.6094 12.7812 26.8281C12.0104 26.0469 11.401 25.1198 10.9531 24.0469C10.5052 22.9635 10.2812 21.776 10.2812 20.4844V5.60938H14.5625V13.4219C14.7917 13.1302 15.0677 12.8698 15.3906 12.6406C15.724 12.4115 16.0781 12.224 16.4531 12.0781C16.8385 11.9323 17.2344 11.8229 17.6406 11.75C18.0469 11.6667 18.4427 11.625 18.8281 11.625C20.0156 11.625 21.125 11.849 22.1562 12.2969C23.1979 12.7344 24.1042 13.349 24.875 14.1406C25.6458 14.9323 26.2552 15.8698 26.7031 16.9531C27.151 18.026 27.375 19.2031 27.375 20.4844ZM23.0781 20.4844C23.0781 19.8385 22.9635 19.2396 22.7344 18.6875C22.5156 18.125 22.2135 17.6406 21.8281 17.2344C21.4427 16.8281 20.9896 16.5104 20.4688 16.2812C19.9583 16.0521 19.4115 15.9375 18.8281 15.9375C18.2448 15.9375 17.6927 16.0677 17.1719 16.3281C16.6615 16.5781 16.2135 16.9167 15.8281 17.3438C15.4427 17.7604 15.1406 18.2448 14.9219 18.7969C14.7031 19.3385 14.5938 19.901 14.5938 20.4844C14.5938 21.1302 14.7031 21.7292 14.9219 22.2812C15.1406 22.8333 15.4427 23.3125 15.8281 23.7188C16.2135 24.125 16.6615 24.4479 17.1719 24.6875C17.6927 24.9167 18.2448 25.0312 18.8281 25.0312C19.4115 25.0312 19.9583 24.9167 20.4688 24.6875C20.9896 24.4479 21.4427 24.125 21.8281 23.7188C22.2135 23.3125 22.5156 22.8333 22.7344 22.2812C22.9635 21.7292 23.0781 21.1302 23.0781 20.4844Z" fill="#F0635A"/>
<path d="M16.239 1.0018V6.45116C10.1187 7.32991 5.41299 12.5952 5.41299 18.9558C5.41299 25.9317 11.0678 31.5867 18.0433 31.5867C20.8797 31.5867 23.4996 30.6521 25.6071 29.0714L29.4629 32.9274C26.3522 35.4717 22.3737 37 18.0433 37C8.07799 37 0 28.9216 0 18.9558C0 9.59987 7.12169 1.90582 16.239 1.0018ZM35.9964 20.7602C35.6355 24.3889 34.2029 27.7018 32.0142 30.3742L28.1584 26.5199C29.398 24.8671 30.2388 22.9003 30.5455 20.7602H35.9982H35.9964ZM19.8512 1.0018C28.3749 1.84808 35.152 8.62729 36 17.1514H30.5473C29.757 11.6208 25.3815 7.2451 19.8512 6.45296V1V1.0018Z" fill="#FCFCFC"/>
<path d="M58.328 14.576C58.328 15.552 58.104 16.448 57.656 17.264C57.208 18.064 56.52 18.712 55.592 19.208C54.664 19.704 53.512 19.952 52.136 19.952H49.592V26H45.488V9.152H52.136C53.48 9.152 54.616 9.384 55.544 9.848C56.472 10.312 57.168 10.952 57.632 11.768C58.096 12.584 58.328 13.52 58.328 14.576ZM51.824 16.688C52.608 16.688 53.192 16.504 53.576 16.136C53.96 15.768 54.152 15.248 54.152 14.576C54.152 13.904 53.96 13.384 53.576 13.016C53.192 12.648 52.608 12.464 51.824 12.464H49.592V16.688H51.824ZM64.0886 14.84C64.5686 14.104 65.1686 13.528 65.8886 13.112C66.6086 12.68 67.4086 12.464 68.2886 12.464V16.808H67.1606C66.1366 16.808 65.3686 17.032 64.8566 17.48C64.3446 17.912 64.0886 18.68 64.0886 19.784V26H59.9846V12.608H64.0886V14.84ZM75.8662 26.192C74.5542 26.192 73.3702 25.912 72.3142 25.352C71.2742 24.792 70.4502 23.992 69.8422 22.952C69.2502 21.912 68.9542 20.696 68.9542 19.304C68.9542 17.928 69.2582 16.72 69.8662 15.68C70.4742 14.624 71.3062 13.816 72.3622 13.256C73.4182 12.696 74.6022 12.416 75.9142 12.416C77.2262 12.416 78.4102 12.696 79.4662 13.256C80.5222 13.816 81.3542 14.624 81.9622 15.68C82.5702 16.72 82.8742 17.928 82.8742 19.304C82.8742 20.68 82.5622 21.896 81.9382 22.952C81.3302 23.992 80.4902 24.792 79.4182 25.352C78.3622 25.912 77.1782 26.192 75.8662 26.192ZM75.8662 22.64C76.6502 22.64 77.3142 22.352 77.8582 21.776C78.4182 21.2 78.6982 20.376 78.6982 19.304C78.6982 18.232 78.4262 17.408 77.8822 16.832C77.3542 16.256 76.6982 15.968 75.9142 15.968C75.1142 15.968 74.4502 16.256 73.9222 16.832C73.3942 17.392 73.1302 18.216 73.1302 19.304C73.1302 20.376 73.3862 21.2 73.8982 21.776C74.4262 22.352 75.0822 22.64 75.8662 22.64ZM88.6754 14.504C89.0754 13.88 89.6274 13.376 90.3314 12.992C91.0354 12.608 91.8594 12.416 92.8034 12.416C93.9074 12.416 94.9074 12.696 95.8034 13.256C96.6994 13.816 97.4034 14.616 97.9154 15.656C98.4434 16.696 98.7074 17.904 98.7074 19.28C98.7074 20.656 98.4434 21.872 97.9154 22.928C97.4034 23.968 96.6994 24.776 95.8034 25.352C94.9074 25.912 93.9074 26.192 92.8034 26.192C91.8754 26.192 91.0514 26 90.3314 25.616C89.6274 25.232 89.0754 24.736 88.6754 24.128V32.384H84.5714V12.608H88.6754V14.504ZM94.5314 19.28C94.5314 18.256 94.2434 17.456 93.6674 16.88C93.1074 16.288 92.4114 15.992 91.5794 15.992C90.7634 15.992 90.0674 16.288 89.4914 16.88C88.9314 17.472 88.6514 18.28 88.6514 19.304C88.6514 20.328 88.9314 21.136 89.4914 21.728C90.0674 22.32 90.7634 22.616 91.5794 22.616C92.3954 22.616 93.0914 22.32 93.6674 21.728C94.2434 21.12 94.5314 20.304 94.5314 19.28ZM113.005 19.088C113.005 19.472 112.981 19.872 112.933 20.288H103.645C103.709 21.12 103.973 21.76 104.437 22.208C104.917 22.64 105.501 22.856 106.189 22.856C107.213 22.856 107.925 22.424 108.325 21.56H112.693C112.469 22.44 112.061 23.232 111.469 23.936C110.893 24.64 110.165 25.192 109.285 25.592C108.405 25.992 107.421 26.192 106.333 26.192C105.021 26.192 103.853 25.912 102.829 25.352C101.805 24.792 101.005 23.992 100.429 22.952C99.8525 21.912 99.5645 20.696 99.5645 19.304C99.5645 17.912 99.8445 16.696 100.405 15.656C100.981 14.616 101.781 13.816 102.805 13.256C103.829 12.696 105.005 12.416 106.333 12.416C107.629 12.416 108.781 12.688 109.789 13.232C110.797 13.776 111.581 14.552 112.141 15.56C112.717 16.568 113.005 17.744 113.005 19.088ZM108.805 18.008C108.805 17.304 108.565 16.744 108.085 16.328C107.605 15.912 107.005 15.704 106.285 15.704C105.597 15.704 105.013 15.904 104.533 16.304C104.069 16.704 103.781 17.272 103.669 18.008H108.805ZM118.794 14.84C119.274 14.104 119.874 13.528 120.594 13.112C121.314 12.68 122.114 12.464 122.994 12.464V16.808H121.866C120.842 16.808 120.074 17.032 119.562 17.48C119.05 17.912 118.794 18.68 118.794 19.784V26H114.69V12.608H118.794V14.84ZM131.939 22.52V26H129.851C128.363 26 127.203 25.64 126.371 24.92C125.539 24.184 125.123 22.992 125.123 21.344V16.016H123.491V12.608H125.123V9.344H129.227V12.608H131.915V16.016H129.227V21.392C129.227 21.792 129.323 22.08 129.515 22.256C129.707 22.432 130.027 22.52 130.475 22.52H131.939ZM135.809 11.216C135.089 11.216 134.497 11.008 134.033 10.592C133.585 10.16 133.361 9.632 133.361 9.008C133.361 8.368 133.585 7.84 134.033 7.424C134.497 6.992 135.089 6.776 135.809 6.776C136.513 6.776 137.089 6.992 137.537 7.424C138.001 7.84 138.233 8.368 138.233 9.008C138.233 9.632 138.001 10.16 137.537 10.592C137.089 11.008 136.513 11.216 135.809 11.216ZM137.849 12.608V26H133.745V12.608H137.849ZM146.439 26.192C145.127 26.192 143.943 25.912 142.887 25.352C141.847 24.792 141.023 23.992 140.415 22.952C139.823 21.912 139.527 20.696 139.527 19.304C139.527 17.928 139.831 16.72 140.439 15.68C141.047 14.624 141.879 13.816 142.935 13.256C143.991 12.696 145.175 12.416 146.487 12.416C147.799 12.416 148.983 12.696 150.039 13.256C151.095 13.816 151.927 14.624 152.535 15.68C153.143 16.72 153.447 17.928 153.447 19.304C153.447 20.68 153.135 21.896 152.511 22.952C151.903 23.992 151.063 24.792 149.991 25.352C148.935 25.912 147.751 26.192 146.439 26.192ZM146.439 22.64C147.223 22.64 147.887 22.352 148.431 21.776C148.991 21.2 149.271 20.376 149.271 19.304C149.271 18.232 148.999 17.408 148.455 16.832C147.927 16.256 147.271 15.968 146.487 15.968C145.687 15.968 145.023 16.256 144.495 16.832C143.967 17.392 143.703 18.216 143.703 19.304C143.703 20.376 143.959 21.2 144.471 21.776C144.999 22.352 145.655 22.64 146.439 22.64Z" fill="#FCFCFC"/>
</svg>
