<svg width="24" height="24" viewBox="0 0 24 24" fill="none" xmlns="http://www.w3.org/2000/svg">
<path fill-rule="evenodd" clip-rule="evenodd" d="M16.4988 0C16.7134 1.45774 16.1201 2.88585 15.3374 3.89625C14.4999 4.98003 13.0565 5.81827 11.658 5.77452C11.4027 4.37887 12.0564 2.94089 12.8517 1.97423C13.7242 0.907384 15.2195 0.0889039 16.4988 0ZM20.7 20.5185C21.421 19.4135 21.6903 18.8561 22.25 17.6086C18.1793 16.0606 17.527 10.2733 21.5557 8.05215C20.3269 6.51115 18.6001 5.61788 16.9701 5.61788C15.7957 5.61788 14.991 5.92437 14.2594 6.203C13.6498 6.43519 13.091 6.64804 12.4113 6.64804C11.6768 6.64804 11.0264 6.41483 10.3453 6.17063C9.59691 5.9023 8.81153 5.6207 7.83699 5.6207C6.00784 5.6207 4.06086 6.73835 2.82646 8.64908C1.09129 11.3402 1.38726 16.3992 4.20113 20.709C5.20688 22.2514 6.55069 23.9843 8.30831 23.9998C9.03761 24.0071 9.52291 23.7894 10.0481 23.5539C10.6492 23.2842 11.3025 22.9912 12.4337 22.9852C13.5716 22.9784 14.2146 23.275 14.8078 23.5485C15.3194 23.7846 15.794 24.0034 16.5171 23.9956C18.2761 23.9815 19.6942 22.0609 20.7 20.5185Z" fill="#0B0B0A"/>
</svg>
