<svg width="24" height="24" viewBox="0 0 24 24" fill="none" xmlns="http://www.w3.org/2000/svg">
<g clip-path="url(#clip0_613_1301)">
<path d="M12 0C18.6274 0 24 5.40541 24 12.0733C24 18.0994 19.6118 23.0943 13.875 24V15.5633H16.6711L17.2031 12.0733H13.875V9.80958C13.875 8.8548 14.34 7.92313 15.8306 7.92313H17.3438V4.95195C17.3438 4.95195 17.1846 4.92463 16.9229 4.88859C16.5118 4.83198 15.8477 4.75386 15.1498 4.72628C14.9867 4.71983 14.8216 4.71615 14.6576 4.71615C11.9166 4.71615 10.125 6.38755 10.125 9.41343V12.0733H7.07812V15.5633H10.125V24C4.3882 23.0943 0 18.0994 0 12.0733C0 5.40541 5.37258 0 12 0Z" fill="#1877F2"/>
</g>
<defs>
<clipPath id="clip0_613_1301">
<rect width="24" height="24" fill="white"/>
</clipPath>
</defs>
</svg>
