<svg width="24" height="24" viewBox="0 0 24 24" fill="none" xmlns="http://www.w3.org/2000/svg">
<g clip-path="url(#clip0_613_2416)">
<path d="M23.7686 12.2769C23.7686 11.4611 23.7025 10.6409 23.5614 9.83841H12.2422V14.4595H18.7241C18.4552 15.95 17.5909 17.2684 16.3254 18.1062V21.1046H20.1925C22.4634 19.0145 23.7686 15.9279 23.7686 12.2769Z" fill="#4285F4"/>
<path d="M12.2424 24.0016C15.479 24.0016 18.2085 22.939 20.1971 21.1046L16.33 18.1062C15.2541 18.8381 13.8651 19.2526 12.2468 19.2526C9.1161 19.2526 6.46159 17.1405 5.50914 14.3008H1.51855V17.3918C3.55574 21.4441 7.70506 24.0016 12.2424 24.0016Z" fill="#34A853"/>
<path d="M5.50491 14.3008C5.00223 12.8104 5.00223 11.1965 5.50491 9.70608V6.61504H1.51873C-0.183328 10.0059 -0.183328 14.0009 1.51873 17.3918L5.50491 14.3008Z" fill="#FBBC04"/>
<path d="M12.2424 4.74982C13.9533 4.72337 15.6069 5.36715 16.8459 6.54889L20.2721 3.12272C18.1026 1.08554 15.2232 -0.0344672 12.2424 0.000808694C7.70506 0.000808694 3.55574 2.55831 1.51855 6.61504L5.50473 9.70608C6.45277 6.86197 9.11169 4.74982 12.2424 4.74982Z" fill="#EA4335"/>
</g>
<defs>
<clipPath id="clip0_613_2416">
<rect width="24" height="24" fill="white"/>
</clipPath>
</defs>
</svg>
